<?xml version="1.0" encoding="UTF-8"?>
<svg version="1.1" xmlns="http://www.w3.org/2000/svg" width="756" height="246">
<path d="M0 0 C249.48 0 498.96 0 756 0 C756 81.18 756 162.36 756 246 C506.52 246 257.04 246 0 246 C0 164.82 0 83.64 0 0 Z " fill="#FEFEFE" transform="translate(0,0)"/>
<path d="M0 0 C7.54875 -0.061875 15.0975 -0.12375 22.875 -0.1875 C25.23769043 -0.21481201 27.60038086 -0.24212402 30.03466797 -0.27026367 C31.9371693 -0.27903715 33.83967633 -0.28667904 35.7421875 -0.29296875 C36.70584229 -0.30831665 37.66949707 -0.32366455 38.66235352 -0.33947754 C47.58134853 -0.34287051 55.94611599 0.97051436 62.59375 7.3359375 C66.20989409 11.61504135 67.59671936 16.3098709 67.34765625 21.88671875 C66.41661369 27.54620215 64.16823084 32.35621157 59.75 36.0625 C58.8425 36.701875 57.935 37.34125 57 38 C57.99 38.66 58.98 39.32 60 40 C65.71398059 44.04353615 69.12574449 48.17550494 71 55 C72.29535402 62.66214121 70.32351766 68.64123865 66 75 C60.85333098 81.22947471 53.08262903 84.37657963 45.16860962 85.34729004 C42.2460738 85.4578426 39.34964958 85.45167161 36.42578125 85.390625 C35.49326538 85.38659668 34.56074951 85.38256836 33.59997559 85.37841797 C30.1706122 85.35774653 26.74153288 85.30190459 23.3125 85.25 C15.619375 85.1675 7.92625 85.085 0 85 C0 56.95 0 28.9 0 0 Z " fill="#314254" transform="translate(417,59)"/>
<path d="M0 0 C0.33 0 0.66 0 1 0 C1.13934618 9.51008748 1.24579521 19.01982071 1.31087303 28.53070831 C1.34211587 32.94759822 1.38445768 37.363787 1.45263672 41.78027344 C1.51808393 46.04675635 1.553759 50.31256719 1.56926346 54.57951355 C1.58030467 56.20300368 1.60186622 57.82645919 1.63438034 59.44966125 C1.92981114 74.81702754 1.92981114 74.81702754 -3.50744629 80.65582275 C-3.99998901 81.09940125 -4.49253174 81.54297974 -5 82 C-5.67804688 82.64453125 -6.35609375 83.2890625 -7.0546875 83.953125 C-16.92522736 90.98535512 -24.67016197 93.19170162 -36.75 93.3125 C-37.70132813 93.34150391 -38.65265625 93.37050781 -39.6328125 93.40039062 C-46.35181281 93.46021734 -51.10696022 92.16890564 -57 89 C-57.69327393 88.68844971 -58.38654785 88.37689941 -59.10083008 88.0559082 C-61.26876805 86.88897208 -62.5564049 86.00263718 -64 84 C-64.31982422 81.58081055 -64.31982422 81.58081055 -64.2421875 78.69921875 C-64.21552002 77.62591309 -64.18885254 76.55260742 -64.16137695 75.44677734 C-63.88580313 69.56092081 -63.49859768 63.68848402 -63.0625 57.8125 C-62.29502171 46.99058603 -61.68950839 36.17761094 -61.34204102 25.33325195 C-61.12373355 18.86013016 -60.652458 12.44390391 -60 6 C-57.98177083 7.43229167 -55.96354167 8.86458333 -53.9453125 10.296875 C-46.10997804 14.82765196 -39.10659837 16.73172669 -30.0625 16.625 C-29.09828125 16.61734619 -28.1340625 16.60969238 -27.140625 16.60180664 C-18.43804608 16.33021905 -12.41015452 14.27487371 -6.08984375 8.1484375 C-3.77672152 5.57830169 -1.91845077 2.87767615 0 0 Z " fill="#FEFDFD" transform="translate(107,54)"/>
<path d="M0 0 C0.62165039 0.78624756 1.24330078 1.57249512 1.88378906 2.38256836 C3.73415309 4.67118774 5.55810056 6.61062261 7.75 8.5625 C8.36359375 9.12066406 8.9771875 9.67882813 9.609375 10.25390625 C16.3153804 15.15192 21.89937454 16.69935009 30.1875 16.5625 C31.57026123 16.54932739 31.57026123 16.54932739 32.98095703 16.53588867 C42.39542269 16.25647142 49.96423062 13.96775744 57.67431641 8.40112305 C58.61109726 7.72644234 58.61109726 7.72644234 59.56680298 7.03813171 C60.2762355 6.52425652 60.2762355 6.52425652 61 6 C61.04567108 6.55915604 61.09134216 7.11831207 61.13839722 7.69441223 C61.62265913 13.61786462 62.11005729 19.54105351 62.59912109 25.46411133 C62.78023242 27.66228998 62.96059533 29.86053045 63.14013672 32.05883789 C64.15074761 44.42611815 65.22737874 56.77739159 66.57617188 69.11279297 C68.05536297 82.67942924 68.05536297 82.67942924 65.4921875 85.88671875 C57.86404567 92.06401792 49.71794896 93.53895739 40.1875 93.4375 C39.21425781 93.43137695 38.24101562 93.42525391 37.23828125 93.41894531 C24.42330112 93.13979863 15.58788194 88.85900702 6.61328125 79.78125 C3.03439398 75.82974251 1.6281818 73.61782408 1.47583008 68.15258789 C1.43601517 66.97358414 1.39620026 65.79458038 1.35517883 64.57984924 C1.32691513 63.30697556 1.29865143 62.03410187 1.26953125 60.72265625 C1.229384 59.40518906 1.18923676 58.08772186 1.14787292 56.73033142 C1.04138932 53.22242575 0.95245718 49.71427988 0.86688232 46.20581055 C0.79511137 43.37718103 0.71139418 40.54896933 0.62686634 37.72069645 C0.25132389 25.14607553 -0.06289848 12.58158643 0 0 Z " fill="#FEFEFD" transform="translate(129,54)"/>
<path d="M0 0 C5.91600645 5.91600645 6.74365506 11.08732982 7.1875 19.1875 C1.2475 19.1875 -4.6925 19.1875 -10.8125 19.1875 C-11.4725 17.2075 -12.1325 15.2275 -12.8125 13.1875 C-15.13600747 10.4142814 -16.35660205 9.33946598 -19.8125 8.1875 C-28.90883635 7.28323 -28.90883635 7.28323 -37.1875 10.3125 C-39.08092446 13.66240481 -39.47064325 15.40317631 -38.8125 19.1875 C-34.07996899 25.16306922 -24.22254744 26.38608197 -17.25 28.1875 C2.98738741 33.47307781 2.98738741 33.47307781 8.5625 42.6875 C11.43534936 49.11201545 11.32594265 56.36296226 9.33984375 63.03515625 C6.61466347 69.15988346 3.01676869 72.94901739 -2.8125 76.1875 C-3.534375 76.6 -4.25625 77.0125 -5 77.4375 C-11.43877768 80.40924354 -17.89992272 80.6002097 -24.875 80.6875 C-25.79684082 80.70603027 -26.71868164 80.72456055 -27.66845703 80.74365234 C-37.76007041 80.6519921 -46.42001448 77.08605553 -53.8125 70.1875 C-59.38160042 63.90986263 -60.8125 58.68307896 -60.8125 50.1875 C-54.8725 50.1875 -48.9325 50.1875 -42.8125 50.1875 C-42.420625 51.59 -42.02875 52.9925 -41.625 54.4375 C-40.20261746 58.71135696 -38.74559039 60.78927415 -34.8125 63.1875 C-34.24144531 63.54328125 -33.67039062 63.8990625 -33.08203125 64.265625 C-29.97259373 65.52866675 -27.28512902 65.4892012 -23.9375 65.5 C-22.14699219 65.52513672 -22.14699219 65.52513672 -20.3203125 65.55078125 C-16.46577002 65.15159144 -14.08954565 64.22729372 -10.8125 62.1875 C-8.32413035 58.45494552 -8.27023448 56.60309065 -8.8125 52.1875 C-12.39734857 48.64946849 -15.99415858 47.18987893 -20.75 45.6875 C-21.40242676 45.47665771 -22.05485352 45.26581543 -22.72705078 45.04858398 C-27.17724159 43.62969033 -31.66849192 42.43249831 -36.1875 41.25 C-44.24142906 38.99052669 -51.18640752 35.40420427 -55.8125 28.1875 C-58.51582873 22.34830995 -58.96641583 16.16056349 -57.16015625 9.94140625 C-53.62176107 2.15086236 -47.82683514 -2.84625978 -40.0234375 -6.0859375 C-26.39468964 -10.56464263 -11.85110353 -7.63737783 0 0 Z " fill="#304153" transform="translate(395.8125,64.8125)"/>
<path d="M0 0 C8.13538347 5.00296393 12.85342451 11.08826624 15.75 20.2421875 C17.656339 30.36484758 16.29001452 41.04096813 10.5625 49.703125 C5.52127871 55.84569419 -0.85073584 60.16826506 -8.859375 61.31640625 C-19.28992258 62.03358503 -27.96697534 61.8515878 -36.171875 54.94140625 C-43.62540534 47.84280593 -46.8778308 41.8464287 -47.21533203 31.42700195 C-47.3035083 21.65413186 -45.93072277 13.95032304 -39.7421875 6.17578125 C-29.64487551 -3.79583806 -12.7819273 -6.23879785 0 0 Z " fill="#304153" transform="translate(615.859375,83.68359375)"/>
<path d="M0 0 C7.09648334 4.57043497 11.45530067 10.69326853 13.96484375 18.71484375 C16.18842183 29.2212502 14.71537839 38.78435197 9.19921875 47.98828125 C4.28901885 54.9917769 -2.04316599 58.98970617 -10.41015625 60.66796875 C-21.60738014 61.62699024 -30.73251778 60.54189963 -39.62109375 53.40625 C-45.14837947 48.0358523 -48.13370731 41.33360982 -48.7109375 33.6796875 C-48.73045672 32.23840813 -48.73386814 30.79683669 -48.72265625 29.35546875 C-48.7170166 28.60144775 -48.71137695 27.84742676 -48.70556641 27.07055664 C-48.50378817 17.81572825 -46.13898054 10.31303174 -39.41015625 3.66796875 C-27.69741421 -4.72433863 -13.17740347 -6.45313174 0 0 Z " fill="#304153" transform="translate(545.41015625,84.33203125)"/>
<path d="M0 0 C0.7115625 -0.0103125 1.423125 -0.020625 2.15625 -0.03125 C5.62518415 0.75504174 7.73999088 2.27217349 10.5 4.5 C12.40625 7.55859375 12.40625 7.55859375 14 10.9375 C16.69274883 16.19365165 18.48623963 19.39146857 23.5 22.5 C24.07492188 22.88671875 24.64984375 23.2734375 25.2421875 23.671875 C33.39006769 28.30063184 44.39752659 27.57496144 53.3828125 25.9921875 C60.27830573 23.90191603 66.71439736 19.88380297 71.5 14.5 C72.49 14.83 73.48 15.16 74.5 15.5 C75.29083629 24.08900764 76.07369906 32.67869176 76.84690857 41.26930237 C77.20633526 45.25996929 77.56831372 49.25036749 77.93652344 53.24023438 C78.29300631 57.10412899 78.64226476 60.96861966 78.98690796 64.83358765 C79.11836419 66.29428582 79.2522483 67.75476799 79.38882446 69.21499634 C80.10572553 76.89792534 80.65667274 84.57665751 80.82421875 92.29296875 C80.85733154 93.58614014 80.89044434 94.87931152 80.92456055 96.21166992 C80.5 99.5 80.5 99.5 78.6784668 101.75610352 C76.32701416 103.46678461 74.22104201 104.44622776 71.5 105.5 C70.7891626 105.83185303 70.0783252 106.16370605 69.34594727 106.50561523 C62.85750501 109.4074749 57.25919903 110.17148673 50.1875 110.0625 C49.17856689 110.05154297 48.16963379 110.04058594 47.13012695 110.02929688 C34.34514388 109.6592242 24.73053547 105.56421952 15.5 96.5 C9.5 89.65831663 9.5 89.65831663 9.5 86.5 C4.7203144 84.90677147 -0.34659716 84.71216969 -5.0625 86.4375 C-7.40538909 88.41994461 -8.92618187 90.30015734 -10.75 92.75 C-16.86891211 100.89530508 -25.11214598 106.88593805 -35.1640625 109.08203125 C-46.84932225 110.54610946 -58.82094303 110.86268342 -69.5 105.5 C-70.70281616 104.9726123 -70.70281616 104.9726123 -71.92993164 104.43457031 C-74.61373731 103.03132414 -76.47781164 101.76768091 -78.5 99.5 C-79.62661553 94.94732192 -79.14290764 90.50129148 -78.75 85.875 C-78.66508491 84.47233841 -78.5845787 83.06940426 -78.50805664 81.66625977 C-78.32586694 78.47699486 -78.11422391 75.29122138 -77.88525391 72.10498047 C-77.42940407 65.65850288 -77.08115879 59.20682276 -76.73046875 52.75390625 C-76.03127988 39.99983063 -75.27979946 27.24938245 -74.5 14.5 C-70.95211954 15.26236208 -69.35650132 16.32235201 -66.75 18.875 C-62.82855581 22.44527009 -59.56302602 23.98109219 -54.5 25.5 C-53.92121094 25.68304688 -53.34242187 25.86609375 -52.74609375 26.0546875 C-44.09561457 27.76973903 -33.37990025 27.61400415 -25.5 23.5 C-24.81679687 23.14421875 -24.13359375 22.7884375 -23.4296875 22.421875 C-17.58261141 18.73132507 -15.17182225 13.6990444 -12.3359375 7.5234375 C-9.47961034 2.81961363 -5.63103839 -0.08160925 0 0 Z M-11.5 13.5 C-12.35028164 14.69646773 -13.1794958 15.90791876 -14 17.125 C-17.43785804 21.80845878 -21.49499128 24.64259502 -26.5 27.5 C-27.10569824 27.84764404 -27.71139648 28.19528809 -28.33544922 28.5534668 C-35.97546412 31.89435759 -48.47172929 30.48369476 -56.37109375 28.5546875 C-61.95120755 26.29420828 -66.7983408 23.23995618 -71.5 19.5 C-72.6293714 29.90913986 -73.02214294 40.35844352 -73.5 50.8125 C-74.67769755 76.42512159 -74.67769755 76.42512159 -75.8125 88.94873047 C-76.34046255 94.56732639 -76.34046255 94.56732639 -73.99609375 99.47265625 C-66.27226489 105.62451212 -58.13875141 106.99298256 -48.5625 106.875 C-47.15581055 106.89240234 -47.15581055 106.89240234 -45.72070312 106.91015625 C-34.68820661 106.86415557 -24.36371414 103.21472685 -16.34765625 95.40234375 C-11.6804399 90.143374 -10.37434759 87.63492152 -10.38647461 80.47998047 C-10.38632858 79.75792419 -10.38618256 79.03586792 -10.3860321 78.29193115 C-10.38672993 75.90031959 -10.39451625 73.50878549 -10.40234375 71.1171875 C-10.40420839 69.46094811 -10.40563208 67.80470816 -10.40663147 66.14846802 C-10.41045301 61.78532392 -10.42028022 57.422213 -10.43133545 53.05908203 C-10.44155736 48.60840301 -10.44613076 44.15771863 -10.45117188 39.70703125 C-10.4619028 30.97133892 -10.47897488 22.23567359 -10.5 13.5 C-10.83 13.5 -11.16 13.5 -11.5 13.5 Z M10.5 13.5 C10.49670074 17.8333374 10.49730115 22.1666622 10.5 26.5 C10.50069489 27.63768829 10.50138977 28.77537659 10.50210571 29.94754028 C10.51612016 36.90160829 10.58266304 43.85337049 10.71236897 50.80619907 C10.77583153 54.28694056 10.81882503 57.76545642 10.81567383 61.24682617 C9.93906673 79.60124922 9.93906673 79.60124922 17.80859375 95.20703125 C20.59432653 97.65555033 20.59432653 97.65555033 23.5 99.5 C24.36020752 100.08338135 25.22041504 100.6667627 26.10668945 101.26782227 C33.76568243 106.11761632 41.45714316 106.86292726 50.3125 106.875 C51.24642578 106.89949219 52.18035156 106.92398438 53.14257812 106.94921875 C61.24922253 106.98297299 68.28951295 104.85028278 75.125 100.4375 C80.39381187 93.92081163 77.21974103 82.00979214 76.44140625 74.0703125 C76.3327977 72.91812225 76.22418915 71.76593201 76.11228943 70.5788269 C75.76717662 66.92707445 75.41513191 63.27603331 75.0625 59.625 C74.7148406 55.98098751 74.36865031 52.33684004 74.02342224 48.69259644 C73.80920911 46.43618664 73.59339516 44.17992798 73.37562561 41.92385864 C72.66048347 34.4553483 72.05198853 26.98229956 71.5 19.5 C70.74259521 20.00813232 69.98519043 20.51626465 69.20483398 21.03979492 C56.83735433 29.33696482 45.2647719 31.3246238 30.5 29.5 C22.47391873 27.09745594 17.50744428 21.98193954 12.5 15.5 C11.84 14.84 11.18 14.18 10.5 13.5 Z " fill="#FE8C62" transform="translate(118.5,40.5)"/>
<path d="M0 0 C19.47 0 38.94 0 59 0 C59 5.28 59 10.56 59 16 C45.47 16 31.94 16 18 16 C18 22.27 18 28.54 18 35 C29.88 35 41.76 35 54 35 C54 39.95 54 44.9 54 50 C42.12 50 30.24 50 18 50 C18 61.22 18 72.44 18 84 C12.06 84 6.12 84 0 84 C0 56.28 0 28.56 0 0 Z " fill="#2F4153" transform="translate(236,59)"/>
<path d="M0 0 C5.61 0 11.22 0 17 0 C17.33 14.52 17.66 29.04 18 44 C26.02044459 36.02475666 26.02044459 36.02475666 33.52734375 27.69140625 C34.01332031 27.13324219 34.49929688 26.57507813 35 26 C35.42909668 25.47615723 35.85819336 24.95231445 36.30029297 24.41259766 C38.5340117 22.55619194 39.79274307 22.65209063 42.66796875 22.70703125 C43.56064453 22.71669922 44.45332031 22.72636719 45.37304688 22.73632812 C46.30181641 22.76146484 47.23058594 22.78660156 48.1875 22.8125 C49.12787109 22.82603516 50.06824219 22.83957031 51.03710938 22.85351562 C53.35865038 22.88886904 55.67903653 22.93821326 58 23 C51.22718406 31.00704848 43.9900908 38.19992272 36 45 C37.60945728 49.73857624 40.2107192 53.53966111 43.0078125 57.63671875 C43.49329559 58.35737015 43.97877869 59.07802155 44.47897339 59.82051086 C46.02322401 62.11253315 47.57336925 64.40046844 49.125 66.6875 C51.17450917 69.70874288 53.21798958 72.73393028 55.2578125 75.76171875 C55.73276154 76.45754562 56.20771057 77.1533725 56.697052 77.87028503 C60 82.77442895 60 82.77442895 60 85 C53.27076109 86.61336261 46.51284456 87.9478453 40 85 C32.87240266 77.77563544 28.36860875 68.05587768 24 59 C21.53199953 60.15173355 19.95216435 61.04783565 18 63 C17.62948007 65.3245339 17.62948007 65.3245339 17.5859375 68.0078125 C17.54726563 68.99394531 17.50859375 69.98007813 17.46875 70.99609375 C17.4378125 72.02863281 17.406875 73.06117188 17.375 74.125 C17.33632813 75.16527344 17.29765625 76.20554687 17.2578125 77.27734375 C17.16335671 79.85126402 17.08058229 82.42560805 17 85 C11.39 85 5.78 85 0 85 C0 56.95 0 28.9 0 0 Z " fill="#314354" transform="translate(644,59)"/>
<path d="M0 0 C5.94 0 11.88 0 18 0 C18 27.72 18 55.44 18 84 C12.06 84 6.12 84 0 84 C0 56.28 0 28.56 0 0 Z " fill="#2C3E50" transform="translate(306,59)"/>
<path d="M0 0 C2.31279611 1.15639806 4.17409828 2.17409828 6 4 C6.15250301 5.64149794 6.2382561 7.28925193 6.29711914 8.93676758 C6.3570681 10.5215667 6.3570681 10.5215667 6.41822815 12.13838196 C6.45681442 13.29541122 6.4954007 14.45244049 6.53515625 15.64453125 C6.57813339 16.83866135 6.62111053 18.03279144 6.66539001 19.2631073 C6.75589236 21.80951937 6.8439951 24.35601764 6.92993164 26.90258789 C7.05971052 30.73022834 7.19814336 34.55747774 7.33789062 38.38476562 C7.82992151 52.26248142 8.13666654 66.11366716 8 80 C7.39478516 79.83846436 6.78957031 79.67692871 6.16601562 79.51049805 C3.56554443 78.89760521 1.17056365 78.83084178 -1.5 78.8125 C-2.4384375 78.79832031 -3.376875 78.78414063 -4.34375 78.76953125 C-7.0904334 79.00784643 -8.60590085 79.7133948 -11 81 C-11.09260216 70.88195392 -11.16371516 60.76400834 -11.20724869 50.64562511 C-11.22814066 45.94743592 -11.25648746 41.24953623 -11.30175781 36.55151367 C-11.34515848 32.01925619 -11.36912497 27.48727748 -11.37950897 22.95482826 C-11.38691078 21.22399823 -11.40136458 19.49318378 -11.42292023 17.76247215 C-11.45187826 15.34155453 -11.45595932 12.92179483 -11.45410156 10.50073242 C-11.46848267 9.78216064 -11.48286377 9.06358887 -11.49768066 8.32324219 C-11.47106814 5.12688821 -11.41074328 3.440599 -9.1864624 1.05464172 C-5.96143102 -0.5009545 -3.53360517 -0.37195844 0 0 Z " fill="#FEFCFB" transform="translate(121,44)"/>
<path d="M0 0 C4.20261675 1.69893018 6.41945133 4.3135019 9 8 C11.44287838 15.32863515 10.70338779 24.04081913 7.921875 31.19140625 C5.9906231 34.98026061 3.9830264 36.67232453 0 38 C-5.04333018 38.47622777 -9.47693148 38.82499545 -14 36.375 C-18.66379473 30.83674376 -19.50124078 26.04501264 -19.4375 19.0625 C-19.45748047 18.28970703 -19.47746094 17.51691406 -19.49804688 16.72070312 C-19.49249282 10.15025311 -17.83305594 5.83884951 -13.08984375 1.0859375 C-8.9904299 -1.04422521 -4.4844234 -0.48714718 0 0 Z " fill="#FCFCFC" transform="translate(605,94)"/>
<path d="M0 0 C4.64114744 1.77746072 6.53271738 4.77037265 9 9 C11.21802596 15.65407788 11.30165636 24.31655417 8.1875 30.6875 C4.30645161 36.56451613 4.30645161 36.56451613 0 38 C-5.01817211 38.47385217 -9.46515741 38.79939718 -14 36.4375 C-18.61562047 30.81221255 -19.48762142 25.47633847 -19.375 18.4375 C-19.38660156 17.70853516 -19.39820313 16.97957031 -19.41015625 16.22851562 C-19.37814856 10.30175905 -17.87879854 6.23107326 -14 1.625 C-9.41916118 -0.85628769 -5.09737148 -0.62275579 0 0 Z " fill="#FCFCFC" transform="translate(533,94)"/>
<path d="M0 0 C3.87542277 -0.0811135 7.74913882 -0.1405605 11.625 -0.1875 C13.26662109 -0.22520508 13.26662109 -0.22520508 14.94140625 -0.26367188 C21.74500535 -0.32552278 26.53900125 0.00046775 31.875 4.625 C33.87507587 8.84738239 33.78127956 13.68637656 32.29296875 18.09375 C30.54057564 20.67733863 28.79074296 21.6080289 26 23 C23.0456543 23.34057617 23.0456543 23.34057617 19.82421875 23.29296875 C18.08881836 23.2784668 18.08881836 23.2784668 16.31835938 23.26367188 C14.52108398 23.2259668 14.52108398 23.2259668 12.6875 23.1875 C10.8612207 23.16719727 10.8612207 23.16719727 8.99804688 23.14648438 C5.99850807 23.11119568 2.99919734 23.05739074 0 23 C0 15.41 0 7.82 0 0 Z " fill="#FDFDFD" transform="translate(436,106)"/>
<path d="M0 0 C3.89657545 -0.10798823 7.79015546 -0.18732013 11.6875 -0.25 C12.79029297 -0.28351563 13.89308594 -0.31703125 15.02929688 -0.3515625 C23.23543471 -0.45073033 23.23543471 -0.45073033 27.20703125 1.890625 C29.79939516 4.9404649 30.17457643 6.45445623 29.875 10.375 C29.83117187 11.14585938 29.78734375 11.91671875 29.7421875 12.7109375 C28.57619592 16.30710101 27.35619362 17.19752421 24 19 C19.88363177 19.48298922 15.82464306 19.37573433 11.6875 19.25 C10.00430664 19.22292969 10.00430664 19.22292969 8.28710938 19.1953125 C5.52437268 19.14828719 2.76207638 19.07654715 0 19 C0 12.73 0 6.46 0 0 Z " fill="#FDFDFD" transform="translate(436,74)"/>
<path d="M0 0 C1.86328125 0.2734375 1.86328125 0.2734375 4 1 C5.16796875 2.6015625 5.16796875 2.6015625 6.1875 4.625 C12.23548227 14.88824264 24.88401258 20.82993634 36 24 C47.78597984 25.84901506 59.45600169 26.37697982 70.6796875 21.875 C73 21 73 21 76 21 C76 21.66 76 22.32 76 23 C71.50468662 25.49584273 67.21763107 26.81495676 62.1875 27.6875 C61.47827393 27.81342529 60.76904785 27.93935059 60.03833008 28.0690918 C44.18723287 30.74996556 28.42471464 27.46086268 15.125 18.1875 C10.54246889 14.65163778 6.29657892 10.79297822 3 6 C3 5.34 3 4.68 3 4 C0.57099248 6.36153509 -1.72164725 8.60824427 -3.6875 11.375 C-12.48605831 21.36255267 -26.46376773 27.10069884 -39.58862305 28.22094727 C-42.33365332 28.33868784 -45.06497932 28.37954294 -47.8125 28.375 C-48.77502686 28.37411377 -49.73755371 28.37322754 -50.72924805 28.37231445 C-57.82919497 28.25439105 -64.75513469 27.74191328 -71 24 C-71.33 23.01 -71.66 22.02 -72 21 C-71.33613281 21.20496094 -70.67226562 21.40992188 -69.98828125 21.62109375 C-69.10527344 21.89050781 -68.22226563 22.15992188 -67.3125 22.4375 C-66.44238281 22.70433594 -65.57226562 22.97117188 -64.67578125 23.24609375 C-48.92818044 27.68300901 -32.71456401 25.55211093 -18.25 18.25 C-10.32541568 13.65721172 -3.98880766 8.32446817 0 0 Z " fill="#FF8A5F" transform="translate(118,133)"/>
<path d="M0 0 C10.35785412 -0.36557132 10.35785412 -0.36557132 12.83203125 1.04296875 C14.63189387 4.05879207 14.43339656 7.09353426 14.375 10.5 C14.38660156 11.17675781 14.39820313 11.85351562 14.41015625 12.55078125 C14.39348743 15.36781131 14.29298141 17.50908467 12.83203125 19.95703125 C8.99585935 22.14095001 4.25908805 21.15032075 0 21 C0 14.07 0 7.14 0 0 Z " fill="#FF936B" transform="translate(533,176)"/>
<path d="M0 0 C10.37760888 -0.36626855 10.37760888 -0.36626855 12.83203125 1.078125 C14.61381943 4.01003064 14.39638174 6.54136635 14.375 9.9375 C14.38273437 11.16339844 14.39046875 12.38929688 14.3984375 13.65234375 C13.97742299 17.18969115 13.69541336 18.68389855 11 21 C7.27101421 21.53965062 3.78628294 21.17817802 0 21 C0 14.07 0 7.14 0 0 Z " fill="#FEF3EF" transform="translate(330,176)"/>
<path d="M0 0 C8.3984375 -0.1953125 8.3984375 -0.1953125 11 0 C13 2 13 2 13.16015625 3.91015625 C13.11181641 4.97556641 13.11181641 4.97556641 13.0625 6.0625 C13.041875 7.361875 13.02125 8.66125 13 10 C13.33 10.33 13.66 10.66 14 11 C14.27314815 16.73611111 14.27314815 16.73611111 14 19 C12 21 12 21 9.1796875 21.1953125 C6.11979167 21.13020833 3.05989583 21.06510417 0 21 C0 14.07 0 7.14 0 0 Z " fill="#FE8B60" transform="translate(430,176)"/>
<path d="M0 0 C0 0.99 0 1.98 0 3 C-0.99 3.495 -0.99 3.495 -2 4 C-2 29.41 -2 54.82 -2 81 C-1.34 81.33 -0.68 81.66 0 82 C-3.68059536 89.20783258 -8.95696316 96.74009868 -16 101 C-16.99 100.67 -17.98 100.34 -19 100 C-17.9790625 99.01 -17.9790625 99.01 -16.9375 98 C-9.31266434 91.05796021 -9.31266434 91.05796021 -5.87974548 81.98812866 C-5.88196609 80.69573273 -5.88418671 79.40333679 -5.88647461 78.07177734 C-5.88632858 77.35947464 -5.88618256 76.64717194 -5.8860321 75.9132843 C-5.88672989 73.55413794 -5.89451603 71.19507011 -5.90234375 68.8359375 C-5.9042084 67.20211836 -5.90563208 65.56829866 -5.90663147 63.93447876 C-5.91045291 59.6305182 -5.92028002 55.32659129 -5.93133545 51.02264404 C-5.94155758 46.63228816 -5.94613081 42.24192685 -5.95117188 37.8515625 C-5.96190261 29.23435954 -5.97897457 20.61718396 -6 12 C-6.99 12 -7.98 12 -9 12 C-8.57405412 10.55903414 -8.13373367 9.12231288 -7.6875 7.6875 C-7.44386719 6.88699219 -7.20023438 6.08648437 -6.94921875 5.26171875 C-5.35838538 1.47121455 -4.19469644 0 0 0 Z " fill="#FF8355" transform="translate(113,43)"/>
<path d="M0 0 C10.46473586 -0.36934362 10.46473586 -0.36934362 12.83984375 1.26953125 C14.81839899 4.22070961 14.30769755 7.59525974 14 11 C13.79375 11.886875 13.5875 12.77375 13.375 13.6875 C12.89390011 16.65428267 13.70726661 18.33849008 15 21 C13.125 20.8125 13.125 20.8125 11 20 C10.71125 19.175 10.4225 18.35 10.125 17.5 C9.75375 16.675 9.3825 15.85 9 15 C5.94727535 14.10169161 5.94727535 14.10169161 3 14 C3 16.31 3 18.62 3 21 C2.01 21 1.02 21 0 21 C0 14.07 0 7.14 0 0 Z " fill="#FE936C" transform="translate(450,176)"/>
<path d="M0 0 C8.3984375 -0.1953125 8.3984375 -0.1953125 11 0 C13 2 13 2 13.23046875 4.0234375 C13.20919922 5.18746094 13.20919922 5.18746094 13.1875 6.375 C13.17783203 7.53128906 13.17783203 7.53128906 13.16796875 8.7109375 C13 11 13 11 12.4296875 13.0859375 C11.76676649 16.03894926 12.93562068 18.24513588 14 21 C13.01 21 12.02 21 11 21 C9.5393715 18.35261084 9 17.10551666 9 14 C6.69 14 4.38 14 2 14 C2 16.31 2 18.62 2 21 C1.34 21 0.68 21 0 21 C0 14.07 0 7.14 0 0 Z " fill="#FF8152" transform="translate(632,176)"/>
<path d="M0 0 C0.66 0 1.32 0 2 0 C-0.03811662 7.24663687 -5.64422466 12.41642327 -11.875 16.25 C-13.56951488 17.19196597 -15.27776066 18.10973474 -17 19 C-17.75539062 19.391875 -18.51078125 19.78375 -19.2890625 20.1875 C-32.7955506 26.67825046 -48.17596042 26.8768605 -62.23046875 22.16796875 C-65.02607219 20.98900482 -67.50934872 19.73480464 -70 18 C-70 17.34 -70 16.68 -70 16 C-66.45668305 16.6052641 -63.41739166 17.56944005 -60.125 19 C-48.74779835 23.62460627 -36.48571593 23.02000058 -25 19 C-15.76146593 15.12586669 -15.76146593 15.12586669 -8 9 C-7.34 9 -6.68 9 -6 9 C-5.62875 8.1646875 -5.62875 8.1646875 -5.25 7.3125 C-3.77075182 4.57589087 -2.06532561 2.32349131 0 0 Z " fill="#FF8F65" transform="translate(114,131)"/>
<path d="M0 0 C0.66 0 1.32 0 2 0 C3.05014305 1.31566217 4.03976399 2.67985248 5 4.0625 C11.21716844 12.24908205 19.35254106 16.82144978 29 20 C29.65484375 20.22558594 30.3096875 20.45117188 30.984375 20.68359375 C43.07811434 24.30671814 55.68715651 21.6957581 66.96875 16.8046875 C69 16 69 16 71 16 C70 19 70 19 67.453125 20.3515625 C66.39609375 20.77179688 65.3390625 21.19203125 64.25 21.625 C63.20328125 22.05039063 62.1565625 22.47578125 61.078125 22.9140625 C47.62426169 27.66047621 32.75466175 25.80022992 20 20 C11.98204697 15.78581994 5.05592731 10.58389096 0 3 C0 2.01 0 1.02 0 0 Z " fill="#FE8D64" transform="translate(124,131)"/>
<path d="M0 0 C1.32 0 2.64 0 4 0 C5.00465729 3.12352227 6.00292927 6.24904853 7 9.375 C7.28617188 10.26445312 7.57234375 11.15390625 7.8671875 12.0703125 C8.13789062 12.92109375 8.40859375 13.771875 8.6875 14.6484375 C9.06455078 15.82672119 9.06455078 15.82672119 9.44921875 17.02880859 C10 19 10 19 10 21 C9.01 21 8.02 21 7 21 C6.67 20.01 6.34 19.02 6 18 C3.36 18 0.72 18 -2 18 C-2.33 18.99 -2.66 19.98 -3 21 C-3.99 21 -4.98 21 -6 21 C-4.29977612 13.87352969 -2.42080258 6.9165788 0 0 Z " fill="#FE946C" transform="translate(677,176)"/>
<path d="M0 0 C1.32 0 2.64 0 4 0 C5.00465729 3.12352227 6.00292927 6.24904853 7 9.375 C7.28617188 10.26445312 7.57234375 11.15390625 7.8671875 12.0703125 C8.13789062 12.92109375 8.40859375 13.771875 8.6875 14.6484375 C9.06455078 15.82672119 9.06455078 15.82672119 9.44921875 17.02880859 C10 19 10 19 10 21 C9.01 21 8.02 21 7 21 C6.67 19.68 6.34 18.36 6 17 C2.04 17.495 2.04 17.495 -2 18 C-2.33 18.99 -2.66 19.98 -3 21 C-3.99 21 -4.98 21 -6 21 C-4.29977612 13.87352969 -2.42080258 6.9165788 0 0 Z " fill="#FF946C" transform="translate(616,176)"/>
<path d="M0 0 C0.59425781 0.19335938 1.18851563 0.38671875 1.80078125 0.5859375 C16.838477 5.31006587 32.66929817 7.8958804 47.6796875 1.875 C50 1 50 1 53 1 C53 1.66 53 2.32 53 3 C48.50468662 5.49584273 44.21763107 6.81495676 39.1875 7.6875 C38.47827393 7.81342529 37.76904785 7.93935059 37.03833008 8.0690918 C22.82608967 10.47278802 11.21039584 7.50258141 -2 2 C-1.34 1.34 -0.68 0.68 0 0 Z " fill="#FE8B61" transform="translate(141,153)"/>
<path d="M0 0 C2.31 0 4.62 0 7 0 C8.75559942 1.75559942 8.13221919 4.03582442 8.13671875 6.37109375 C8.13285156 7.07363281 8.12898437 7.77617187 8.125 8.5 C8.12886719 9.20253906 8.13273438 9.90507812 8.13671875 10.62890625 C8.12661378 15.87338622 8.12661378 15.87338622 7 17 C4.69 17 2.38 17 0 17 C0 11.39 0 5.78 0 0 Z " fill="#FEFAF8" transform="translate(536,178)"/>
<path d="M0 0 C0.33 0 0.66 0 1 0 C1.43185088 4.69522982 1.85892103 9.39086211 2.28173828 14.08691406 C2.42596116 15.68143185 2.57144597 17.27583605 2.71826172 18.87011719 C2.93015302 21.17353419 3.13736764 23.47733364 3.34375 25.78125 C3.40937134 26.48366821 3.47499268 27.18608643 3.54260254 27.90979004 C3.95896293 32.62435235 4.05568408 37.26685286 4 42 C3.34 42 2.68 42 2 42 C2 45.3 2 48.6 2 52 C1.67 52 1.34 52 1 52 C0.56828401 47.16233149 0.14120592 42.32428315 -0.28173828 37.48583984 C-0.42599818 35.84282615 -0.5714843 34.19991961 -0.71826172 32.55712891 C-0.93005349 30.18419658 -1.1373074 27.81090297 -1.34375 25.4375 C-1.40937134 24.71320801 -1.47499268 23.98891602 -1.54260254 23.24267578 C-2.09591269 16.79295721 -2.5845513 10.33820521 -1 4 C-0.814375 3.236875 -0.62875 2.47375 -0.4375 1.6875 C-0.293125 1.130625 -0.14875 0.57375 0 0 Z " fill="#FE936C" transform="translate(192,56)"/>
<path d="M0 0 C1.19109375 0.00773438 1.19109375 0.00773438 2.40625 0.015625 C3.2003125 0.01046875 3.994375 0.0053125 4.8125 0 C6.90625 0.265625 6.90625 0.265625 8.90625 2.265625 C8.90625 3.585625 8.90625 4.905625 8.90625 6.265625 C8.24625 6.265625 7.58625 6.265625 6.90625 6.265625 C6.24625 5.275625 5.58625 4.285625 4.90625 3.265625 C1.84068402 2.53219072 1.84068402 2.53219072 -1.09375 2.265625 C-1.09375 4.245625 -1.09375 6.225625 -1.09375 8.265625 C-0.02125 8.36875 1.05125 8.471875 2.15625 8.578125 C7.58543089 9.57347483 7.58543089 9.57347483 9.90625 12.265625 C10.36430321 15.4065613 10.60451786 17.32801375 8.6640625 19.93359375 C6.42209931 21.63250363 5.13015284 21.63780084 2.34375 21.578125 C1.55871094 21.57425781 0.77367187 21.57039063 -0.03515625 21.56640625 C-2.09375 21.265625 -2.09375 21.265625 -4.09375 19.265625 C-4.09375 17.945625 -4.09375 16.625625 -4.09375 15.265625 C-3.43375 15.265625 -2.77375 15.265625 -2.09375 15.265625 C-1.10375 16.750625 -1.10375 16.750625 -0.09375 18.265625 C2.98990871 18.5158407 2.98990871 18.5158407 5.90625 18.265625 C5.90625 16.615625 5.90625 14.965625 5.90625 13.265625 C5.26816406 12.98847656 4.63007813 12.71132812 3.97265625 12.42578125 C3.14636719 12.06355469 2.32007813 11.70132813 1.46875 11.328125 C0.64503906 10.96847656 -0.17867188 10.60882813 -1.02734375 10.23828125 C-3.09375 9.265625 -3.09375 9.265625 -4.09375 8.265625 C-4.28125 5.328125 -4.28125 5.328125 -4.09375 2.265625 C-2.09375 0.265625 -2.09375 0.265625 0 0 Z " fill="#FF8E64" transform="translate(372.09375,175.734375)"/>
<path d="M0 0 C10.37760888 -0.36626855 10.37760888 -0.36626855 12.83203125 1.078125 C14.61381943 4.01003064 14.39638174 6.54136635 14.375 9.9375 C14.38273437 11.16339844 14.39046875 12.38929688 14.3984375 13.65234375 C13.97742299 17.18969115 13.69541336 18.68389855 11 21 C7.27101421 21.53965062 3.78628294 21.17817802 0 21 C0 14.07 0 7.14 0 0 Z M2 2 C2 7.61 2 13.22 2 19 C8.32917961 19.52174919 8.32917961 19.52174919 11 18 C11.02685095 15.52076199 11.04676547 13.0418116 11.0625 10.5625 C11.07087891 9.85544922 11.07925781 9.14839844 11.08789062 8.41992188 C11.09653588 6.61306441 11.05220011 4.80612397 11 3 C10.67 2.67 10.34 2.34 10 2 C7.36 2 4.72 2 2 2 Z " fill="#FF7F50" transform="translate(330,176)"/>
<path d="M0 0 C1.19109375 0.00773438 1.19109375 0.00773438 2.40625 0.015625 C3.2003125 0.01046875 3.994375 0.0053125 4.8125 0 C6.90625 0.265625 6.90625 0.265625 8.90625 2.265625 C8.90625 3.585625 8.90625 4.905625 8.90625 6.265625 C8.24625 6.265625 7.58625 6.265625 6.90625 6.265625 C6.57625 5.275625 6.24625 4.285625 5.90625 3.265625 C3.59625 2.935625 1.28625 2.605625 -1.09375 2.265625 C-1.09375 4.245625 -1.09375 6.225625 -1.09375 8.265625 C-0.46726562 8.38679687 0.15921875 8.50796875 0.8046875 8.6328125 C2.03058594 8.88417969 2.03058594 8.88417969 3.28125 9.140625 C4.09335937 9.30304688 4.90546875 9.46546875 5.7421875 9.6328125 C7.90625 10.265625 7.90625 10.265625 9.90625 12.265625 C10.4641596 17.50997528 10.4641596 17.50997528 8.671875 19.9375 C6.42434011 21.62812359 5.13008091 21.6377993 2.34375 21.578125 C1.55871094 21.57425781 0.77367187 21.57039063 -0.03515625 21.56640625 C-2.09375 21.265625 -2.09375 21.265625 -4.09375 19.265625 C-4.09375 17.945625 -4.09375 16.625625 -4.09375 15.265625 C-3.43375 15.265625 -2.77375 15.265625 -2.09375 15.265625 C-1.10375 16.750625 -1.10375 16.750625 -0.09375 18.265625 C2.98990871 18.5158407 2.98990871 18.5158407 5.90625 18.265625 C5.90625 16.615625 5.90625 14.965625 5.90625 13.265625 C5.26816406 12.98847656 4.63007812 12.71132812 3.97265625 12.42578125 C3.14636719 12.06355469 2.32007813 11.70132813 1.46875 11.328125 C0.64503906 10.96847656 -0.17867187 10.60882813 -1.02734375 10.23828125 C-3.09375 9.265625 -3.09375 9.265625 -4.09375 8.265625 C-4.28125 5.328125 -4.28125 5.328125 -4.09375 2.265625 C-2.09375 0.265625 -2.09375 0.265625 0 0 Z " fill="#FE9067" transform="translate(575.09375,175.734375)"/>
<path d="M0 0 C4.29 0 8.58 0 13 0 C13 0.66 13 1.32 13 2 C9.7 2 6.4 2 3 2 C3 4.31 3 6.62 3 9 C5.31 9 7.62 9 10 9 C10 9.99 10 10.98 10 12 C7.69 12 5.38 12 3 12 C3 14.31 3 16.62 3 19 C6.3 19 9.6 19 13 19 C13 19.66 13 20.32 13 21 C8.71 21 4.42 21 0 21 C0 14.07 0 7.14 0 0 Z " fill="#FF8D63" transform="translate(291,176)"/>
<path d="M0 0 C1.17755859 -0.00773438 1.17755859 -0.00773438 2.37890625 -0.015625 C4.4375 0.25 4.4375 0.25 6.4375 2.25 C6.4375 3.57 6.4375 4.89 6.4375 6.25 C5.7775 6.25 5.1175 6.25 4.4375 6.25 C3.7775 5.26 3.1175 4.27 2.4375 3.25 C-0.60445427 2.91659529 -0.60445427 2.91659529 -3.5625 3.25 C-4.89460219 4.35740578 -4.89460219 4.35740578 -4.6953125 7.15625 C-4.69273437 8.3421875 -4.69015625 9.528125 -4.6875 10.75 C-4.69007813 11.9359375 -4.69265625 13.121875 -4.6953125 14.34375 C-4.89460219 17.14259422 -4.89460219 17.14259422 -3.5625 18.25 C-1.56291636 18.29080783 0.43795254 18.29254356 2.4375 18.25 C3.0975 16.27 3.7575 14.29 4.4375 12.25 C3.1175 12.25 1.7975 12.25 0.4375 12.25 C0.4375 11.59 0.4375 10.93 0.4375 10.25 C2.4175 10.25 4.3975 10.25 6.4375 10.25 C6.49149736 11.70792884 6.53029177 13.16642712 6.5625 14.625 C6.58570313 15.43710938 6.60890625 16.24921875 6.6328125 17.0859375 C6.4375 19.25 6.4375 19.25 4.4375 21.25 C2.125 21.55078125 2.125 21.55078125 -0.5625 21.5625 C-1.449375 21.57925781 -2.33625 21.59601563 -3.25 21.61328125 C-4.013125 21.49339844 -4.77625 21.37351563 -5.5625 21.25 C-8.05769858 17.50720213 -7.89415336 14.51999036 -7.875 10.1875 C-7.89111328 9.45466797 -7.90722656 8.72183594 -7.92382812 7.96679688 C-7.92578125 5.83984375 -7.92578125 5.83984375 -7.5625 2.25 C-4.42838698 0.16059132 -3.58799528 -0.02364412 0 0 Z " fill="#FF8559" transform="translate(659.5625,175.75)"/>
<path d="M0 0 C3.96 0 7.92 0 12 0 C12 0.66 12 1.32 12 2 C9.03 2 6.06 2 3 2 C3 4.31 3 6.62 3 9 C5.31 9 7.62 9 10 9 C10 9.99 10 10.98 10 12 C7.69 12 5.38 12 3 12 C3 14.31 3 16.62 3 19 C6.3 19 9.6 19 13 19 C13 19.66 13 20.32 13 21 C8.71 21 4.42 21 0 21 C0 14.07 0 7.14 0 0 Z " fill="#FF9169" transform="translate(553,176)"/>
<path d="M0 0 C3.96 0 7.92 0 12 0 C12 0.66 12 1.32 12 2 C9.03 2 6.06 2 3 2 C3 4.31 3 6.62 3 9 C5.31 9 7.62 9 10 9 C10 9.99 10 10.98 10 12 C7.69 12 5.38 12 3 12 C3 14.31 3 16.62 3 19 C5.97 19 8.94 19 12 19 C12 19.66 12 20.32 12 21 C8.04 21 4.08 21 0 21 C0 14.07 0 7.14 0 0 Z " fill="#FF8A5F" transform="translate(350,176)"/>
<path d="M0 0 C1.0209375 0.00580078 1.0209375 0.00580078 2.0625 0.01171875 C4 0.3125 4 0.3125 7 2.3125 C7 3.6325 7 4.9525 7 6.3125 C6.34 6.3125 5.68 6.3125 5 6.3125 C4.34 5.3225 3.68 4.3325 3 3.3125 C1.02 3.3125 -0.96 3.3125 -3 3.3125 C-3 8.2625 -3 13.2125 -3 18.3125 C-1.02 18.3125 0.96 18.3125 3 18.3125 C3.66 16.9925 4.32 15.6725 5 14.3125 C5.66 14.3125 6.32 14.3125 7 14.3125 C7.125 16.6875 7.125 16.6875 7 19.3125 C4.47982574 21.83267426 3.48500151 21.60980377 0 21.625 C-0.886875 21.64175781 -1.77375 21.65851563 -2.6875 21.67578125 C-3.450625 21.55589844 -4.21375 21.43601563 -5 21.3125 C-7.40975706 17.69786441 -7.33239432 14.9903074 -7.3125 10.8125 C-7.33666992 9.79736328 -7.33666992 9.79736328 -7.36132812 8.76171875 C-7.36416699 5.8831053 -7.32512766 3.811696 -5.73046875 1.36328125 C-3.65186605 0.1011049 -2.42062841 -0.05959881 0 0 Z " fill="#FF8B61" transform="translate(598,175.6875)"/>
<path d="M0 0 C1.17369141 -0.02513672 1.17369141 -0.02513672 2.37109375 -0.05078125 C5.07388797 0.39727555 5.96255607 1.11579242 7.5625 3.3125 C7.5625 4.3025 7.5625 5.2925 7.5625 6.3125 C6.5725 6.3125 5.5825 6.3125 4.5625 6.3125 C4.2325 5.3225 3.9025 4.3325 3.5625 3.3125 C1.56295254 3.26995644 -0.43791636 3.27169217 -2.4375 3.3125 C-3.76960219 4.41990578 -3.76960219 4.41990578 -3.5703125 7.21875 C-3.56773437 8.4046875 -3.56515625 9.590625 -3.5625 10.8125 C-3.56507813 11.9984375 -3.56765625 13.184375 -3.5703125 14.40625 C-3.76960219 17.20509422 -3.76960219 17.20509422 -2.4375 18.3125 C-0.43791636 18.35330783 1.56295254 18.35504356 3.5625 18.3125 C3.8925 17.3225 4.2225 16.3325 4.5625 15.3125 C5.5525 15.3125 6.5425 15.3125 7.5625 15.3125 C6.6875 20.1875 6.6875 20.1875 5.5625 21.3125 C3.92019636 21.4370486 2.27197724 21.48818524 0.625 21.5 C-0.27089844 21.51417969 -1.16679687 21.52835938 -2.08984375 21.54296875 C-4.4375 21.3125 -4.4375 21.3125 -6.4375 19.3125 C-6.63606972 16.43907939 -6.71578946 13.68388012 -6.6875 10.8125 C-6.69523437 10.02746094 -6.70296875 9.24242187 -6.7109375 8.43359375 C-6.69048951 2.47300497 -6.25071368 0.03079169 0 0 Z " fill="#FF875B" transform="translate(394.4375,175.6875)"/>
<path d="M0 0 C0.66 0 1.32 0 2 0 C2.06058594 1.21558594 2.12117188 2.43117187 2.18359375 3.68359375 C2.26798332 5.26824228 2.3526321 6.85287702 2.4375 8.4375 C2.47681641 9.23994141 2.51613281 10.04238281 2.55664062 10.86914062 C2.4054296 14.75239561 2.4054296 14.75239561 4 18 C7 18.16666667 7 18.16666667 10 18 C12.11925604 15.88074396 11.41831017 11.3803907 11.5625 8.4375 C11.60568359 7.63119141 11.64886719 6.82488281 11.69335938 5.99414062 C11.79975262 3.99631195 11.90040888 1.9981793 12 0 C12.66 0 13.32 0 14 0 C14.05791844 3.12492251 14.09356746 6.24970766 14.125 9.375 C14.14175781 10.26445312 14.15851563 11.15390625 14.17578125 12.0703125 C14.18222656 12.92109375 14.18867188 13.771875 14.1953125 14.6484375 C14.20578613 15.43395996 14.21625977 16.21948242 14.22705078 17.02880859 C14 19 14 19 12 21 C9.6875 21.265625 9.6875 21.265625 7 21.25 C5.6696875 21.25773437 5.6696875 21.25773437 4.3125 21.265625 C2 21 2 21 0 19 C-0.22705078 17.02880859 -0.22705078 17.02880859 -0.1953125 14.6484375 C-0.18886719 13.79765625 -0.18242187 12.946875 -0.17578125 12.0703125 C-0.15902344 11.18085938 -0.14226562 10.29140625 -0.125 9.375 C-0.11597656 8.4778125 -0.10695313 7.580625 -0.09765625 6.65625 C-0.0740497 4.43723414 -0.0411231 2.21874923 0 0 Z " fill="#FF8153" transform="translate(409,176)"/>
<path d="M0 0 C3.96 0 7.92 0 12 0 C12 0.66 12 1.32 12 2 C8.7 2 5.4 2 2 2 C2.33 4.31 2.66 6.62 3 9 C5.31 9.33 7.62 9.66 10 10 C10 10.66 10 11.32 10 12 C7.36 12 4.72 12 2 12 C2 14.31 2 16.62 2 19 C5.3 19 8.6 19 12 19 C12 19.66 12 20.32 12 21 C8.04 21 4.08 21 0 21 C0 14.07 0 7.14 0 0 Z " fill="#FF8153" transform="translate(273,176)"/>
<path d="M0 0 C3.96 0 7.92 0 12 0 C12 0.66 12 1.32 12 2 C8.7 2 5.4 2 2 2 C2 4.64 2 7.28 2 10 C4.64 10 7.28 10 10 10 C10 10.66 10 11.32 10 12 C7.36 12 4.72 12 2 12 C2 14.31 2 16.62 2 19 C5.3 19 8.6 19 12 19 C12 19.66 12 20.32 12 21 C8.04 21 4.08 21 0 21 C0 14.07 0 7.14 0 0 Z " fill="#FF8153" transform="translate(471,176)"/>
<path d="M0 0 C2.51103257 0.37454477 3.67649351 0.58363516 5.265625 2.62890625 C6.17708333 4.41927083 7.08854167 6.20963542 8 8 C9.32 5.36 10.64 2.72 12 0 C12.99 0 13.98 0 15 0 C14.02999178 3.13387271 13.03455517 5.9378007 11.4375 8.8125 C9.61307161 12.85797165 9.28297254 16.60904675 9 21 C8.01 21 7.02 21 6 21 C5.98582031 20.40574219 5.97164063 19.81148437 5.95703125 19.19921875 C5.54059874 11.96229695 3.30044372 6.40602729 0 0 Z " fill="#FF8E65" transform="translate(500,176)"/>
<path d="M0 0 C0.66 0 1.32 0 2 0 C-0.03811662 7.24663687 -5.64422466 12.41642327 -11.875 16.25 C-21.69980392 21.72489073 -21.69980392 21.72489073 -26 23 C-26.99 22.67 -27.98 22.34 -29 22 C-29 21.34 -29 20.68 -29 20 C-27.7315625 19.56300781 -27.7315625 19.56300781 -26.4375 19.1171875 C-20.06050784 16.81277442 -14.67680201 14.54751691 -9.48828125 10.13671875 C-8 9 -8 9 -6 9 C-5.7525 8.443125 -5.505 7.88625 -5.25 7.3125 C-3.77075182 4.57589087 -2.06532561 2.32349131 0 0 Z " fill="#FE936B" transform="translate(114,131)"/>
<path d="M0 0 C3.63 0 7.26 0 11 0 C11 0.66 11 1.32 11 2 C8.36 2 5.72 2 3 2 C3 5.3 3 8.6 3 12 C4.65 12 6.3 12 8 12 C8 12.33 8 12.66 8 13 C6.35 13 4.7 13 3 13 C3 15.64 3 18.28 3 21 C2.01 21 1.02 21 0 21 C0 14.07 0 7.14 0 0 Z " fill="#FF8A5F" transform="translate(450,176)"/>
<path d="M0 0 C3.375 -0.125 3.375 -0.125 7 0 C9 2 9 2 9.25 5 C9 8 9 8 7 10 C3.375 10.125 3.375 10.125 0 10 C0 6.7 0 3.4 0 0 Z " fill="#FEEFEA" transform="translate(634,178)"/>
<path d="M0 0 C0.99 0 1.98 0 3 0 C3 6.27 3 12.54 3 19 C5.97 19 8.94 19 12 19 C12 19.66 12 20.32 12 21 C8.04 21 4.08 21 0 21 C0 14.07 0 7.14 0 0 Z " fill="#FF8E64" transform="translate(255,176)"/>
<path d="M0 0 C1.32 0 2.64 0 4 0 C4.66 2.64 5.32 5.28 6 8 C5.01 7.67 4.02 7.34 3 7 C3 6.01 3 5.02 3 4 C2.34 4 1.68 4 1 4 C0.7834375 5.60875 0.7834375 5.60875 0.5625 7.25 C0.16250558 9.91662949 -0.27591924 12.41399729 -1 15 C0.65 15 2.3 15 4 15 C4 15.33 4 15.66 4 16 C2.02 16 0.04 16 -2 16 C-2.33 17.65 -2.66 19.3 -3 21 C-3.99 21 -4.98 21 -6 21 C-4.29977612 13.87352969 -2.42080258 6.9165788 0 0 Z " fill="#FF8A60" transform="translate(616,176)"/>
<path d="M0 0 C2.33294775 -0.04241723 4.66702567 -0.04092937 7 0 C8 1 8 1 8.09765625 2.84765625 C8.04882812 5.92382812 8.04882812 5.92382812 8 9 C5.36 9 2.72 9 0 9 C0 6.03 0 3.06 0 0 Z " fill="#FEFAF8" transform="translate(453,178)"/>
<path d="M0 0 C0.33 0 0.66 0 1 0 C1 5.61 1 11.22 1 17 C8.28373595 16.92091092 8.28373595 16.92091092 10 15 C10.23427778 12.98405418 10.41336124 10.961526 10.5625 8.9375 C10.64628906 7.83277344 10.73007812 6.72804687 10.81640625 5.58984375 C10.87699219 4.73519531 10.93757812 3.88054687 11 3 C11.66 3 12.32 3 13 3 C13.0810206 5.10353495 13.13919907 7.20795952 13.1875 9.3125 C13.22230469 10.48425781 13.25710938 11.65601563 13.29296875 12.86328125 C13 16 13 16 11.8125 17.90625 C9.36675609 19.38212995 7.64795239 19.29797217 4.8125 19.1875 C3.224375 19.125625 1.63625 19.06375 0 19 C0 12.73 0 6.46 0 0 Z " fill="#FF8051" transform="translate(534,178)"/>
<path d="M0 0 C2.33294775 -0.04241723 4.66702567 -0.04092937 7 0 C8 1 8 1 8.125 4 C8 7 8 7 7 8 C4.66702567 8.04092937 2.33294775 8.04241723 0 8 C0 5.36 0 2.72 0 0 Z " fill="#FEF9F7" transform="translate(433,187)"/>
<path d="M0 0 C2.97 0 5.94 0 9 0 C9 0.66 9 1.32 9 2 C6.69 2 4.38 2 2 2 C2 4.31 2 6.62 2 9 C5.3 9 8.6 9 12 9 C12 9.66 12 10.32 12 11 C8.04 11 4.08 11 0 11 C0 7.37 0 3.74 0 0 Z " fill="#FF865A" transform="translate(554,186)"/>
<path d="M0 0 C0 0.66 0 1.32 0 2 C-8.87983561 7.27990225 -18.92593041 7.31646292 -29 7 C-29 6.67 -29 6.34 -29 6 C-27.31583984 5.72736328 -27.31583984 5.72736328 -25.59765625 5.44921875 C-17.44961774 4.0930315 -7.9612595 0 0 0 Z " fill="#FF8255" transform="translate(194,154)"/>
<path d="M0 0 C0.33 0 0.66 0 1 0 C1.33 6.27 1.66 12.54 2 19 C1.34 19 0.68 19 0 19 C0 22.3 0 25.6 0 29 C-0.33 29 -0.66 29 -1 29 C-1.19592461 25.68794116 -1.38032746 22.37534146 -1.5625 19.0625 C-1.61857422 18.11697266 -1.67464844 17.17144531 -1.73242188 16.19726562 C-1.78076172 15.29814453 -1.82910156 14.39902344 -1.87890625 13.47265625 C-1.9260376 12.64000244 -1.97316895 11.80734863 -2.02172852 10.94946289 C-2 9 -2 9 -1 8 C-0.76924918 6.65252916 -0.58846937 5.29622435 -0.4375 3.9375 C-0.293125 2.638125 -0.14875 1.33875 0 0 Z " fill="#FEA17E" transform="translate(194,79)"/>
<path d="M0 0 C2.31 0 4.62 0 7 0 C7.625 2.375 7.625 2.375 8 5 C6 7 6 7 2.875 7.125 C1.451875 7.063125 1.451875 7.063125 0 7 C0 4.69 0 2.38 0 0 Z " fill="#FEF1EC" transform="translate(433,178)"/>
<path d="M0 0 C0.1953125 6.0546875 0.1953125 6.0546875 0 8 C-0.66 8.66 -1.32 9.32 -2 10 C-2.33 8.68 -2.66 7.36 -3 6 C-3.928125 6.845625 -4.85625 7.69125 -5.8125 8.5625 C-7.39453125 10.00390625 -7.39453125 10.00390625 -9 11 C-9.99 10.67 -10.98 10.34 -12 10 C-10.33333333 8.33333333 -8.66666667 6.66666667 -7 5 C-6.113125 4.071875 -5.22625 3.14375 -4.3125 2.1875 C-2 0 -2 0 0 0 Z " fill="#FF8456" transform="translate(192,55)"/>
<path d="M0 0 C0.33 0 0.66 0 1 0 C1 7.92 1 15.84 1 24 C-2.37664838 19.49780216 -2.37664838 19.49780216 -2.109375 15.48828125 C-2.03396484 14.22854492 -2.03396484 14.22854492 -1.95703125 12.94335938 C-1.88871094 12.07517578 -1.82039063 11.20699219 -1.75 10.3125 C-1.69714844 9.43271484 -1.64429688 8.55292969 -1.58984375 7.64648438 C-1.15972724 1.15972724 -1.15972724 1.15972724 0 0 Z " fill="#FF8558" transform="translate(45,64)"/>
<path d="M0 0 C0.33 0 0.66 0 1 0 C0.74438677 2.3431213 0.40729228 4.67843403 0 7 C-2.35346396 8.17673198 -3.8806033 8.16623866 -6.5 8.1875 C-7.2940625 8.20167969 -8.088125 8.21585938 -8.90625 8.23046875 C-11 8 -11 8 -13 6 C-13 4.68 -13 3.36 -13 2 C-12.34 2 -11.68 2 -11 2 C-10.01 3.485 -10.01 3.485 -9 5 C-6.04279372 5.66680368 -6.04279372 5.66680368 -3 5 C-1.1375562 2.59141286 -1.1375562 2.59141286 0 0 Z " fill="#FF8558" transform="translate(584,189)"/>
<path d="M0 0 C0.6290625 0.19335938 1.258125 0.38671875 1.90625 0.5859375 C7.24216385 2.2092125 12.57759268 3.69460565 18 5 C18 5.66 18 6.32 18 7 C12.23826782 6.37372476 6.31618644 5.38311806 1 3 C0.67 2.01 0.34 1.02 0 0 Z " fill="#FE8F66" transform="translate(46,154)"/>
<path d="M0 0 C0.66 0 1.32 0 2 0 C2.66 0.99 3.32 1.98 4 3 C6.95769177 3.50010524 6.95769177 3.50010524 10 3 C11.87890434 1.62493901 11.87890434 1.62493901 13 0 C12.125 4.875 12.125 4.875 11 6 C9.00390625 6.16796875 9.00390625 6.16796875 6.5625 6.1875 C5.35787109 6.20876953 5.35787109 6.20876953 4.12890625 6.23046875 C2 6 2 6 0 4 C0 2.68 0 1.36 0 0 Z " fill="#FF8457" transform="translate(368,191)"/>
<path d="M0 0 C1.62463842 -0.05395478 3.24978541 -0.09277195 4.875 -0.125 C5.77992188 -0.14820313 6.68484375 -0.17140625 7.6171875 -0.1953125 C10 0 10 0 12 2 C12.125 4.625 12.125 4.625 12 7 C11.34 7 10.68 7 10 7 C9.67 5.68 9.34 4.36 9 3 C6.36 2.67 3.72 2.34 1 2 C1 4.31 1 6.62 1 9 C0.67 9 0.34 9 0 9 C0 6.03 0 3.06 0 0 Z " fill="#FF7F51" transform="translate(431,176)"/>
<path d="M0 0 C0.33 0 0.66 0 1 0 C1.08119503 2.24940295 1.13927819 4.49964871 1.1875 6.75 C1.22230469 8.00296875 1.25710938 9.2559375 1.29296875 10.546875 C0.98827695 14.1381757 0.57265731 15.533239 -2 18 C-2.66 18 -3.32 18 -4 18 C-4 17.01 -4 16.02 -4 15 C-3.34 15 -2.68 15 -2 15 C-2.02320313 14.08476562 -2.04640625 13.16953125 -2.0703125 12.2265625 C-2.08835937 11.03804687 -2.10640625 9.84953125 -2.125 8.625 C-2.14820313 7.44164062 -2.17140625 6.25828125 -2.1953125 5.0390625 C-2 2 -2 2 0 0 Z " fill="#FF926A" transform="translate(343,179)"/>
<path d="M0 0 C0.66 0 1.32 0 2 0 C2.66 3.3 3.32 6.6 4 10 C2.02 10 0.04 10 -2 10 C-1.34 6.7 -0.68 3.4 0 0 Z " fill="#FEF1EC" transform="translate(617,180)"/>
<path d="M0 0 C0.66 0 1.32 0 2 0 C2.144375 1.0725 2.28875 2.145 2.4375 3.25 C2.83749442 5.91662949 3.27591924 8.41399729 4 11 C3.01 11 2.02 11 1 11 C-0.4606285 8.35261084 -1 7.10551666 -1 4 C-3.31 4 -5.62 4 -8 4 C-8 3.67 -8 3.34 -8 3 C-6.865625 2.87625 -5.73125 2.7525 -4.5625 2.625 C-3.386875 2.41875 -2.21125 2.2125 -1 2 C-0.67 1.34 -0.34 0.68 0 0 Z " fill="#FF8D64" transform="translate(642,186)"/>
<path d="M0 0 C4.10303158 0.46625359 7.16746984 0.84063943 10 4 C10.25 7.1875 10.25 7.1875 10 10 C7 8 7 8 6 5 C2.99152582 3.77479736 2.99152582 3.77479736 0 3 C0 2.01 0 1.02 0 0 Z " fill="#FF9771" transform="translate(372,184)"/>
<path d="M0 0 C0.66 0 1.32 0 2 0 C2.66 3.3 3.32 6.6 4 10 C2.02 10 0.04 10 -2 10 C-1.34 6.7 -0.68 3.4 0 0 Z " fill="#FEF4F0" transform="translate(678,180)"/>
<path d="M0 0 C-5.14086661 3.42724441 -10.00797796 3.1015597 -16 3 C-16 2.34 -16 1.68 -16 1 C-13.8973294 0.63705686 -11.79278943 0.28493028 -9.6875 -0.0625 C-8.51574219 -0.25972656 -7.34398438 -0.45695313 -6.13671875 -0.66015625 C-3 -1 -3 -1 0 0 Z " fill="#FF8659" transform="translate(86,153)"/>
<path d="M0 0 C1.95917659 0.0868748 3.91741871 0.19504512 5.875 0.3125 C7.51082031 0.39951172 7.51082031 0.39951172 9.1796875 0.48828125 C10.11039063 0.65714844 11.04109375 0.82601562 12 1 C12.66 1.99 13.32 2.98 14 4 C8.54230189 4.11138159 3.38490641 3.91657981 -2 3 C-1.34 2.01 -0.68 1.02 0 0 Z " fill="#FEAA8A" transform="translate(158,158)"/>
<path d="M0 0 C1.32 0 2.64 0 4 0 C4.33 2.31 4.66 4.62 5 7 C4.34 7 3.68 7 3 7 C3 6.01 3 5.02 3 4 C2.34 4 1.68 4 1 4 C0.67 4.99 0.34 5.98 0 7 C-1.125 2.25 -1.125 2.25 0 0 Z " fill="#FF895E" transform="translate(677,176)"/>
<path d="M0 0 C0.33 0.66 0.66 1.32 1 2 C3.31 2 5.62 2 8 2 C8 2.33 8 2.66 8 3 C5.69 3 3.38 3 1 3 C0.67 4.65 0.34 6.3 0 8 C-0.99 8 -1.98 8 -3 8 C-1.125 1.125 -1.125 1.125 0 0 Z " fill="#FF895E" transform="translate(674,189)"/>
<path d="M0 0 C-2 3 -2 3 -4.3828125 3.51171875 C-5.28773438 3.56972656 -6.19265625 3.62773437 -7.125 3.6875 C-8.03507813 3.75324219 -8.94515625 3.81898438 -9.8828125 3.88671875 C-10.93082031 3.94279297 -10.93082031 3.94279297 -12 4 C-11 2 -11 2 -9.00390625 1.11328125 C-7.79541016 0.71689453 -7.79541016 0.71689453 -6.5625 0.3125 C-5.75941406 0.04050781 -4.95632812 -0.23148438 -4.12890625 -0.51171875 C-2 -1 -2 -1 0 0 Z " fill="#FF8558" transform="translate(188,145)"/>
<path d="M0 0 C3.375 -0.125 3.375 -0.125 7 0 C9 2 9 2 9 6 C8.34 6 7.68 6 7 6 C6.67 5.01 6.34 4.02 6 3 C3.69 2.67 1.38 2.34 -1 2 C-0.67 1.34 -0.34 0.68 0 0 Z " fill="#FF8255" transform="translate(575,176)"/>
<path d="M0 0 C0 0.66 0 1.32 0 2 C-3.44833324 4.05257931 -5.31661591 5.0632763 -9.375 4.6875 C-10.24125 4.460625 -11.1075 4.23375 -12 4 C-4.28571429 0 -4.28571429 0 0 0 Z " fill="#FE936C" transform="translate(194,154)"/>
<path d="M0 0 C1.77706209 2.66559313 2.87548273 5.0280615 4 8 C2.68 7.67 1.36 7.34 0 7 C-1.125 2.25 -1.125 2.25 0 0 Z " fill="#FF8B61" transform="translate(461,189)"/>
<path d="M0 0 C0.99 0 1.98 0 3 0 C3.125 2.875 3.125 2.875 3 6 C2.34 6.66 1.68 7.32 1 8 C0.67 5.36 0.34 2.72 0 0 Z " fill="#FF885C" transform="translate(309,194)"/>
<path d="M0 0 C0.268125 0.598125 0.53625 1.19625 0.8125 1.8125 C1.98493467 3.97224808 3.19369282 5.35790256 5 7 C3.35 6.67 1.7 6.34 0 6 C-0.38218767 4.34385343 -0.71395102 2.67542976 -1 1 C-0.67 0.67 -0.34 0.34 0 0 Z " fill="#FF8153" transform="translate(369,179)"/>
</svg>
